<?xml version="1.0" encoding="UTF-8"?>
<svg id="Layer_1" xmlns="http://www.w3.org/2000/svg" version="1.1" viewBox="0 0 595.28 507.18">
  <!-- Generator: Adobe Illustrator 29.1.0, SVG Export Plug-In . SVG Version: 2.1.0 Build 142)  -->
  <defs>
    <style>
      .st0 {
        fill: #fefefe;
      }

      .st1 {
        fill: #090909;
      }
    </style>
  </defs>
  <path class="st1" d="M533.82,403h-269.31V82.26c0-.45,1.26-2.71,1.16-3.6l265.94-.26c1.18-.62,2.2,3.3,2.2,3.86v320.74ZM425.21,273.81h44.82v47.64c-30.82,9.64-66.28,14.1-96.37-.33-56.86-27.27-59.78-114.32-9.54-149.77,28.52-20.13,62.95-19.65,95.32-9.87,13.49,4.08,26.3,9.96,38.85,16.26.63-.45.77-11.78.82-13.52.19-7.25.62-15.67-4.85-21.4-6.49-6.78-30.38-12.9-39.96-14.94-87.67-18.73-169,33.64-161.91,128.38,6.51,86.97,90.95,115.52,166.82,101.81,15.28-2.76,30.19-7.52,44.35-13.79l.41-1.2v-95.72c-.19-1.4-3.76-5.15-5.45-5.05l-68.98.11c-8.4,7.85-3.24,21.25-4.32,31.41Z"/>
  <path class="st1" d="M230.2,124.44v45.21h-109.82v47.64h104.17v42.39h-104.17v53.29h112.65v45.21H61.03v-229.5c0-.3,3.94-4.24,4.24-4.24h164.93Z"/>
  <path class="st0" d="M425.21,273.81c1.09-10.15-4.08-23.56,4.32-31.41l68.98-.11c1.69-.1,5.26,3.65,5.45,5.05v95.72s-.41,1.2-.41,1.2c-14.16,6.27-29.07,11.03-44.35,13.79-75.87,13.71-160.31-14.85-166.82-101.81-7.1-94.74,74.23-147.1,161.91-128.38,9.58,2.05,33.47,8.16,39.96,14.94,5.48,5.72,5.04,14.15,4.85,21.4-.04,1.74-.19,13.07-.82,13.52-12.55-6.3-25.36-12.18-38.85-16.26-32.37-9.78-66.8-10.25-95.32,9.87-50.24,35.45-47.32,122.5,9.54,149.77,30.09,14.43,65.55,9.97,96.37.33v-47.64h-44.82Z"/>
</svg>